<svg id="SvgjsSvg1006" width="1540.5" height="1002.875" xmlns="http://www.w3.org/2000/svg" version="1.1" xmlns:xlink="http://www.w3.org/1999/xlink" xmlns:svgjs="http://svgjs.com/svgjs"><defs id="SvgjsDefs1007"><marker id="SvgjsMarker1024" markerWidth="14" markerHeight="10" refX="10" refY="5" viewBox="0 0 14 10" orient="auto" markerUnits="userSpaceOnUse" stroke-dasharray="0,0"><path id="SvgjsPath1025" d="M0,0 L14,5 L0,10 L0,0" fill="#323232" stroke="#323232" stroke-width="1"></path></marker><marker id="SvgjsMarker1072" markerWidth="14" markerHeight="10" refX="10" refY="5" viewBox="0 0 14 10" orient="auto" markerUnits="userSpaceOnUse" stroke-dasharray="0,0"><path id="SvgjsPath1073" d="M0,0 L14,5 L0,10 L0,0" fill="#323232" stroke="#323232" stroke-width="1"></path></marker><marker id="SvgjsMarker1076" markerWidth="14" markerHeight="10" refX="10" refY="5" viewBox="0 0 14 10" orient="auto" markerUnits="userSpaceOnUse" stroke-dasharray="0,0"><path id="SvgjsPath1077" d="M0,0 L14,5 L0,10 L0,0" fill="#323232" stroke="#323232" stroke-width="1"></path></marker><marker id="SvgjsMarker1080" markerWidth="14" markerHeight="10" refX="10" refY="5" viewBox="0 0 14 10" orient="auto" markerUnits="userSpaceOnUse" stroke-dasharray="0,0"><path id="SvgjsPath1081" d="M0,0 L14,5 L0,10 L0,0" fill="#323232" stroke="#323232" stroke-width="1"></path></marker><marker id="SvgjsMarker1084" markerWidth="14" markerHeight="10" refX="10" refY="5" viewBox="0 0 14 10" orient="auto" markerUnits="userSpaceOnUse" stroke-dasharray="0,0"><path id="SvgjsPath1085" d="M0,0 L14,5 L0,10 L0,0" fill="#323232" stroke="#323232" stroke-width="1"></path></marker><marker id="SvgjsMarker1100" markerWidth="14" markerHeight="10" refX="10" refY="5" viewBox="0 0 14 10" orient="auto" markerUnits="userSpaceOnUse" stroke-dasharray="0,0"><path id="SvgjsPath1101" d="M0,0 L14,5 L0,10 L0,0" fill="#323232" stroke="#323232" stroke-width="1"></path></marker><marker id="SvgjsMarker1104" markerWidth="14" markerHeight="10" refX="10" refY="5" viewBox="0 0 14 10" orient="auto" markerUnits="userSpaceOnUse" stroke-dasharray="0,0"><path id="SvgjsPath1105" d="M0,0 L14,5 L0,10 L0,0" fill="#323232" stroke="#323232" stroke-width="1"></path></marker><marker id="SvgjsMarker1108" markerWidth="14" markerHeight="10" refX="10" refY="5" viewBox="0 0 14 10" orient="auto" markerUnits="userSpaceOnUse" stroke-dasharray="0,0"><path id="SvgjsPath1109" d="M0,0 L14,5 L0,10 L0,0" fill="#323232" stroke="#323232" stroke-width="1"></path></marker><marker id="SvgjsMarker1112" markerWidth="14" markerHeight="10" refX="10" refY="5" viewBox="0 0 14 10" orient="auto" markerUnits="userSpaceOnUse" stroke-dasharray="0,0"><path id="SvgjsPath1113" d="M0,0 L14,5 L0,10 L0,0" fill="#323232" stroke="#323232" stroke-width="1"></path></marker><marker id="SvgjsMarker1124" markerWidth="14" markerHeight="10" refX="10" refY="5" viewBox="0 0 14 10" orient="auto" markerUnits="userSpaceOnUse" stroke-dasharray="0,0"><path id="SvgjsPath1125" d="M0,0 L14,5 L0,10 L0,0" fill="#323232" stroke="#323232" stroke-width="1"></path></marker><marker id="SvgjsMarker1182" markerWidth="14" markerHeight="10" refX="10" refY="5" viewBox="0 0 14 10" orient="auto" markerUnits="userSpaceOnUse" stroke-dasharray="0,0"><path id="SvgjsPath1183" d="M0,0 L14,5 L0,10 L0,0" fill="#323232" stroke="#323232" stroke-width="1"></path></marker><marker id="SvgjsMarker1194" markerWidth="14" markerHeight="10" refX="10" refY="5" viewBox="0 0 14 10" orient="auto" markerUnits="userSpaceOnUse" stroke-dasharray="0,0"><path id="SvgjsPath1195" d="M0,0 L14,5 L0,10 L0,0" fill="#323232" stroke="#323232" stroke-width="1"></path></marker><marker id="SvgjsMarker1206" markerWidth="14" markerHeight="10" refX="10" refY="5" viewBox="0 0 14 10" orient="auto" markerUnits="userSpaceOnUse" stroke-dasharray="0,0"><path id="SvgjsPath1207" d="M0,0 L14,5 L0,10 L0,0" fill="#323232" stroke="#323232" stroke-width="1"></path></marker><marker id="SvgjsMarker1216" markerWidth="14" markerHeight="10" refX="10" refY="5" viewBox="0 0 14 10" orient="auto" markerUnits="userSpaceOnUse" stroke-dasharray="0,0"><path id="SvgjsPath1217" d="M0,0 L14,5 L0,10 L0,0" fill="#323232" stroke="#323232" stroke-width="1"></path></marker><marker id="SvgjsMarker1236" markerWidth="14" markerHeight="10" refX="10" refY="5" viewBox="0 0 14 10" orient="auto" markerUnits="userSpaceOnUse" stroke-dasharray="0,0"><path id="SvgjsPath1237" d="M0,0 L14,5 L0,10 L0,0" fill="#323232" stroke="#323232" stroke-width="1"></path></marker><marker id="SvgjsMarker1240" markerWidth="14" markerHeight="10" refX="10" refY="5" viewBox="0 0 14 10" orient="auto" markerUnits="userSpaceOnUse" stroke-dasharray="0,0"><path id="SvgjsPath1241" d="M0,0 L14,5 L0,10 L0,0" fill="#323232" stroke="#323232" stroke-width="1"></path></marker><marker id="SvgjsMarker1248" markerWidth="14" markerHeight="10" refX="10" refY="5" viewBox="0 0 14 10" orient="auto" markerUnits="userSpaceOnUse" stroke-dasharray="0,0"><path id="SvgjsPath1249" d="M0,0 L14,5 L0,10 L0,0" fill="#323232" stroke="#323232" stroke-width="1"></path></marker><marker id="SvgjsMarker1252" markerWidth="14" markerHeight="10" refX="10" refY="5" viewBox="0 0 14 10" orient="auto" markerUnits="userSpaceOnUse" stroke-dasharray="0,0"><path id="SvgjsPath1253" d="M0,0 L14,5 L0,10 L0,0" fill="#323232" stroke="#323232" stroke-width="1"></path></marker><marker id="SvgjsMarker1268" markerWidth="14" markerHeight="10" refX="10" refY="5" viewBox="0 0 14 10" orient="auto" markerUnits="userSpaceOnUse" stroke-dasharray="0,0"><path id="SvgjsPath1269" d="M0,0 L14,5 L0,10 L0,0" fill="#323232" stroke="#323232" stroke-width="1"></path></marker><marker id="SvgjsMarker1272" markerWidth="14" markerHeight="10" refX="10" refY="5" viewBox="0 0 14 10" orient="auto" markerUnits="userSpaceOnUse" stroke-dasharray="0,0"><path id="SvgjsPath1273" d="M0,0 L14,5 L0,10 L0,0" fill="#323232" stroke="#323232" stroke-width="1"></path></marker><marker id="SvgjsMarker1276" markerWidth="14" markerHeight="10" refX="10" refY="5" viewBox="0 0 14 10" orient="auto" markerUnits="userSpaceOnUse" stroke-dasharray="0,0"><path id="SvgjsPath1277" d="M0,0 L14,5 L0,10 L0,0" fill="#323232" stroke="#323232" stroke-width="1"></path></marker><marker id="SvgjsMarker1280" markerWidth="14" markerHeight="10" refX="10" refY="5" viewBox="0 0 14 10" orient="auto" markerUnits="userSpaceOnUse" stroke-dasharray="0,0"><path id="SvgjsPath1281" d="M0,0 L14,5 L0,10 L0,0" fill="#323232" stroke="#323232" stroke-width="1"></path></marker><marker id="SvgjsMarker1284" markerWidth="14" markerHeight="10" refX="10" refY="5" viewBox="0 0 14 10" orient="auto" markerUnits="userSpaceOnUse" stroke-dasharray="0,0"><path id="SvgjsPath1285" d="M0,0 L14,5 L0,10 L0,0" fill="#323232" stroke="#323232" stroke-width="1"></path></marker><marker id="SvgjsMarker1288" markerWidth="14" markerHeight="10" refX="10" refY="5" viewBox="0 0 14 10" orient="auto" markerUnits="userSpaceOnUse" stroke-dasharray="0,0"><path id="SvgjsPath1289" d="M0,0 L14,5 L0,10 L0,0" fill="#323232" stroke="#323232" stroke-width="1"></path></marker><marker id="SvgjsMarker1292" markerWidth="14" markerHeight="10" refX="10" refY="5" viewBox="0 0 14 10" orient="auto" markerUnits="userSpaceOnUse" stroke-dasharray="0,0"><path id="SvgjsPath1293" d="M0,0 L14,5 L0,10 L0,0" fill="#323232" stroke="#323232" stroke-width="1"></path></marker></defs><g id="SvgjsG1008" transform="translate(25,413.75)"><path id="SvgjsPath1009" d="M 0 4Q 0 0 4 0L 96 0Q 100 0 100 4L 100 66Q 100 70 96 70L 4 70Q 0 70 0 66Z" stroke="rgba(50,50,50,1)" stroke-width="2" fill-opacity="1" fill="#ffffff"></path><g id="SvgjsG1010"><text id="SvgjsText1011" font-family="微软雅黑" text-anchor="middle" font-size="13px" width="80px" fill="#323232" font-weight="400" align="middle" lineHeight="125%" anchor="middle" family="微软雅黑" size="13px" weight="400" font-style="" opacity="1" y="15.875" transform="rotate(0)"><tspan id="SvgjsTspan1012" dy="16" x="50"><tspan id="SvgjsTspan1013" style="text-decoration:;">packageData</tspan></tspan><tspan id="SvgjsTspan1014" dy="16" x="50"><tspan id="SvgjsTspan1015" style="text-decoration:;">组装数据</tspan></tspan></text></g></g><g id="SvgjsG1016" transform="translate(182,408.75)"><path id="SvgjsPath1017" d="M 0 40L 60 0L 120 40L 60 80Z" stroke="rgba(50,50,50,1)" stroke-width="2" fill-opacity="1" fill="#ffffff"></path><g id="SvgjsG1018"><text id="SvgjsText1019" font-family="微软雅黑" text-anchor="middle" font-size="13px" width="100px" fill="#323232" font-weight="400" align="middle" lineHeight="125%" anchor="middle" family="微软雅黑" size="13px" weight="400" font-style="" opacity="1" y="21.275" transform="rotate(0)"><tspan id="SvgjsTspan1020" dy="16" x="60"><tspan id="SvgjsTspan1021" style="text-decoration:;">if_1判断1</tspan></tspan></text></g></g><g id="SvgjsG1022"><path id="SvgjsPath1023" d="M126 448.75L153.5 448.75L153.5 448.75L178.39999999999998 448.75" stroke="#323232" stroke-width="2" fill="none" marker-end="url(#SvgjsMarker1024)"></path></g><g id="SvgjsG1026" transform="translate(799.0000000000005,141.67857142857144)"><path id="SvgjsPath1027" d="M 0 4Q 0 0 4 0L 92 0Q 96 0 96 4L 96 41Q 96 45 92 45L 4 45Q 0 45 0 41Z" stroke="rgba(50,50,50,1)" stroke-width="2" fill-opacity="1" fill="#ffffff"></path><g id="SvgjsG1028"><text id="SvgjsText1029" font-family="微软雅黑" text-anchor="middle" font-size="13px" width="76px" fill="#323232" font-weight="400" align="middle" lineHeight="125%" anchor="middle" family="微软雅黑" size="13px" weight="400" font-style="" opacity="1" y="3.375" transform="rotate(0)"><tspan id="SvgjsTspan1030" dy="16" x="48"><tspan id="SvgjsTspan1031" style="text-decoration:;">channel2</tspan></tspan><tspan id="SvgjsTspan1032" dy="16" x="48"><tspan id="SvgjsTspan1033" style="text-decoration:;">供应商2</tspan></tspan></text></g></g><g id="SvgjsG1034" transform="translate(827.9285714285718,240.4148620328327)"><path id="SvgjsPath1035" d="M 0 0L 132 0L 132 47.06601466992665L 0 47.06601466992665Z" stroke="rgba(50,50,50,1)" stroke-width="2" fill-opacity="1" fill="#ffffff"></path><g id="SvgjsG1036"><text id="SvgjsText1037" font-family="微软雅黑" text-anchor="middle" font-size="13px" width="112px" fill="#323232" font-weight="400" align="middle" lineHeight="125%" anchor="middle" family="微软雅黑" size="13px" weight="400" font-style="" opacity="1" y="4.408007334963326" transform="rotate(0)"><tspan id="SvgjsTspan1038" dy="16" x="66"><tspan id="SvgjsTspan1039" style="text-decoration:;">channel1Query</tspan></tspan><tspan id="SvgjsTspan1040" dy="16" x="66"><tspan id="SvgjsTspan1041" style="text-decoration:;">获取供应商1剩余量</tspan></tspan></text></g></g><g id="SvgjsG1042" transform="translate(827.9285714285718,316.392857142857)"><path id="SvgjsPath1043" d="M 0 0L 132 0L 132 47.06601466992665L 0 47.06601466992665Z" stroke="rgba(50,50,50,1)" stroke-width="2" fill-opacity="1" fill="#ffffff"></path><g id="SvgjsG1044"><text id="SvgjsText1045" font-family="微软雅黑" text-anchor="middle" font-size="13px" width="112px" fill="#323232" font-weight="400" align="middle" lineHeight="125%" anchor="middle" family="微软雅黑" size="13px" weight="400" font-style="" opacity="1" y="4.408007334963326" transform="rotate(0)"><tspan id="SvgjsTspan1046" dy="16" x="66"><tspan id="SvgjsTspan1047" style="text-decoration:;">channel2Query</tspan></tspan><tspan id="SvgjsTspan1048" dy="16" x="66"><tspan id="SvgjsTspan1049" style="text-decoration:;">获取供应商2剩余量</tspan></tspan></text></g></g><g id="SvgjsG1050" transform="translate(827.9285714285718,392.37085225288143)"><path id="SvgjsPath1051" d="M 0 0L 132 0L 132 47.06601466992665L 0 47.06601466992665Z" stroke="rgba(50,50,50,1)" stroke-width="2" fill-opacity="1" fill="#ffffff"></path><g id="SvgjsG1052"><text id="SvgjsText1053" font-family="微软雅黑" text-anchor="middle" font-size="13px" width="112px" fill="#323232" font-weight="400" align="middle" lineHeight="125%" anchor="middle" family="微软雅黑" size="13px" weight="400" font-style="" opacity="1" y="4.408007334963326" transform="rotate(0)"><tspan id="SvgjsTspan1054" dy="16" x="66"><tspan id="SvgjsTspan1055" style="text-decoration:;">channel3Query</tspan></tspan><tspan id="SvgjsTspan1056" dy="16" x="66"><tspan id="SvgjsTspan1057" style="text-decoration:;">获取供应商3剩余量</tspan></tspan></text></g></g><g id="SvgjsG1058" transform="translate(827.9285714285718,468.3488473629059)"><path id="SvgjsPath1059" d="M 0 0L 132 0L 132 47.06601466992665L 0 47.06601466992665Z" stroke="rgba(50,50,50,1)" stroke-width="2" fill-opacity="1" fill="#ffffff"></path><g id="SvgjsG1060"><text id="SvgjsText1061" font-family="微软雅黑" text-anchor="middle" font-size="13px" width="112px" fill="#323232" font-weight="400" align="middle" lineHeight="125%" anchor="middle" family="微软雅黑" size="13px" weight="400" font-style="" opacity="1" y="4.408007334963326" transform="rotate(0)"><tspan id="SvgjsTspan1062" dy="16" x="66"><tspan id="SvgjsTspan1063" style="text-decoration:;">channel4Query</tspan></tspan><tspan id="SvgjsTspan1064" dy="16" x="66"><tspan id="SvgjsTspan1065" style="text-decoration:;">获取供应商4剩余量</tspan></tspan></text></g></g><g id="SvgjsG1066" transform="translate(651.4285714285722,438.89285714285705)"><path id="SvgjsPath1067" d="M 0 10C 0 -3.3333333333333335 20 -3.3333333333333335 20 10C 20 23.333333333333332 0 23.333333333333332 0 10Z" stroke="rgba(50,50,50,1)" stroke-width="2" fill-opacity="1" fill="#ffffff"></path><g id="SvgjsG1068"><text id="SvgjsText1069" font-family="微软雅黑" text-anchor="middle" font-size="13px" width="0px" fill="#323232" font-weight="400" align="middle" lineHeight="125%" anchor="middle" family="微软雅黑" size="13px" weight="400" font-style="" opacity="1" y="-0.625" transform="rotate(0)"></text></g></g><g id="SvgjsG1070"><path id="SvgjsPath1071" d="M672.4285714285722 448.89285714285705L749.6785714285722 448.89285714285705L749.6785714285722 263.9478693677959L824.3285714285719 263.9478693677959" stroke="#323232" stroke-width="2" fill="none" marker-end="url(#SvgjsMarker1072)"></path></g><g id="SvgjsG1074"><path id="SvgjsPath1075" d="M672.4285714285722 448.89285714285705L749.6785714285722 448.89285714285705L749.6785714285722 339.9258644778203L824.3285714285719 339.9258644778203" stroke="#323232" stroke-width="2" fill="none" marker-end="url(#SvgjsMarker1076)"></path></g><g id="SvgjsG1078"><path id="SvgjsPath1079" d="M672.4285714285722 448.89285714285705L749.6785714285722 448.89285714285705L749.6785714285722 415.9038595878448L824.3285714285719 415.9038595878448" stroke="#323232" stroke-width="2" fill="none" marker-end="url(#SvgjsMarker1080)"></path></g><g id="SvgjsG1082"><path id="SvgjsPath1083" d="M672.4285714285722 448.89285714285705L749.6785714285722 448.89285714285705L749.6785714285722 491.88185469786913L824.3285714285719 491.88185469786913" stroke="#323232" stroke-width="2" fill="none" marker-end="url(#SvgjsMarker1084)"></path></g><g id="SvgjsG1086"><path id="SvgjsPath1087" d="M303 448.75L476.7142857142861 448.75L476.7142857142861 448.89285714285705L650.4285714285722 448.89285714285705" stroke="#323232" stroke-width="2" fill="none"></path></g><g id="SvgjsG1088" transform="translate(1116.428571428571,415.38392857142856)"><path id="SvgjsPath1089" d="M 0 4Q 0 0 4 0L 116.07142857142912 0Q 120.07142857142912 0 120.07142857142912 4L 120.07142857142912 62.73214285714295Q 120.07142857142912 66.73214285714295 116.07142857142912 66.73214285714295L 4 66.73214285714295Q 0 66.73214285714295 0 62.73214285714295Z" stroke="rgba(50,50,50,1)" stroke-width="2" fill-opacity="1" fill="#ffffff"></path><g id="SvgjsG1090"><text id="SvgjsText1091" font-family="微软雅黑" text-anchor="middle" font-size="13px" width="101px" fill="#323232" font-weight="400" align="middle" lineHeight="125%" anchor="middle" family="微软雅黑" size="13px" weight="400" font-style="" opacity="1" y="6.241071428571473" transform="rotate(0)"><tspan id="SvgjsTspan1092" dy="16" x="60.5"><tspan id="SvgjsTspan1093" style="text-decoration:;">channelSelector</tspan></tspan><tspan id="SvgjsTspan1094" dy="16" x="60.5"><tspan id="SvgjsTspan1095" style="text-decoration:;">选出剩余量最多</tspan></tspan><tspan id="SvgjsTspan1096" dy="16" x="60.5"><tspan id="SvgjsTspan1097" style="text-decoration:;">的那个供应商</tspan></tspan></text></g></g><g id="SvgjsG1098"><path id="SvgjsPath1099" d="M960.9285714285713 263.9478693677959L1038.178571428571 263.9478693677959L1038.178571428571 448.7500000000001L1112.8285714285712 448.7500000000001" stroke="#323232" stroke-width="2" fill="none" marker-end="url(#SvgjsMarker1100)"></path></g><g id="SvgjsG1102"><path id="SvgjsPath1103" d="M960.9285714285713 339.9258644778203L1038.178571428571 339.9258644778203L1038.178571428571 448.7500000000001L1112.8285714285712 448.7500000000001" stroke="#323232" stroke-width="2" fill="none" marker-end="url(#SvgjsMarker1104)"></path></g><g id="SvgjsG1106"><path id="SvgjsPath1107" d="M960.9285714285713 415.9038595878448L1038.178571428571 415.9038595878448L1038.178571428571 448.7500000000001L1112.8285714285712 448.7500000000001" stroke="#323232" stroke-width="2" fill="none" marker-end="url(#SvgjsMarker1108)"></path></g><g id="SvgjsG1110"><path id="SvgjsPath1111" d="M960.9285714285713 491.88185469786913L1038.178571428571 491.88185469786913L1038.178571428571 448.7500000000001L1112.8285714285712 448.7500000000001" stroke="#323232" stroke-width="2" fill="none" marker-end="url(#SvgjsMarker1112)"></path></g><g id="SvgjsG1114" transform="translate(488,803.75)"><path id="SvgjsPath1115" d="M 0 4Q 0 0 4 0L 109 0Q 113 0 113 4L 113 39.5Q 113 43.5 109 43.5L 4 43.5Q 0 43.5 0 39.5Z" stroke="rgba(50,50,50,1)" stroke-width="2" fill-opacity="1" fill="#ffffff"></path><g id="SvgjsG1116"><text id="SvgjsText1117" font-family="微软雅黑" text-anchor="middle" font-size="13px" width="93px" fill="#323232" font-weight="400" align="middle" lineHeight="125%" anchor="middle" family="微软雅黑" size="13px" weight="400" font-style="" opacity="1" y="2.625" transform="rotate(0)"><tspan id="SvgjsTspan1118" dy="16" x="56.5"><tspan id="SvgjsTspan1119" style="text-decoration:;">biz1获取业务动</tspan></tspan><tspan id="SvgjsTspan1120" dy="16" x="56.5"><tspan id="SvgjsTspan1121" style="text-decoration:;">态值</tspan></tspan></text></g></g><g id="SvgjsG1122"><path id="SvgjsPath1123" d="M303 448.75L395 448.75L395 825.5L484.4 825.5" stroke="#323232" stroke-width="2" fill="none" marker-end="url(#SvgjsMarker1124)"></path></g><g id="SvgjsG1126" transform="translate(441,109.25)"><path id="SvgjsPath1127" d="M 0 0L 120 0L 120 40L 0 40Z" stroke="none" fill="none"></path><g id="SvgjsG1128"><text id="SvgjsText1129" font-family="微软雅黑" text-anchor="middle" font-size="13px" width="120px" fill="#323232" font-weight="400" align="middle" lineHeight="125%" anchor="middle" family="微软雅黑" size="13px" weight="400" font-style="" opacity="1" y="9.375" transform="rotate(0)"><tspan id="SvgjsTspan1130" dy="16" x="60"><tspan id="SvgjsTspan1131" style="text-decoration:;">条件2，指定供应商</tspan></tspan></text></g></g><g id="SvgjsG1132" transform="translate(799.0000000000005,55.178571428571416)"><path id="SvgjsPath1133" d="M 0 4Q 0 0 4 0L 92 0Q 96 0 96 4L 96 41Q 96 45 92 45L 4 45Q 0 45 0 41Z" stroke="rgba(50,50,50,1)" stroke-width="2" fill-opacity="1" fill="#ffffff"></path><g id="SvgjsG1134"><text id="SvgjsText1135" font-family="微软雅黑" text-anchor="middle" font-size="13px" width="76px" fill="#323232" font-weight="400" align="middle" lineHeight="125%" anchor="middle" family="微软雅黑" size="13px" weight="400" font-style="" opacity="1" y="3.375" transform="rotate(0)"><tspan id="SvgjsTspan1136" dy="16" x="48"><tspan id="SvgjsTspan1137" style="text-decoration:;">channel1供</tspan></tspan><tspan id="SvgjsTspan1138" dy="16" x="48"><tspan id="SvgjsTspan1139" style="text-decoration:;">应商1</tspan></tspan></text></g></g><g id="SvgjsG1140"><path id="SvgjsPath1141" d="M303 448.75L395.5000000000002 448.75L395.5000000000002 77.67857142857144L798.0000000000005 77.67857142857144" stroke="#323232" stroke-width="2" fill="none"></path></g><g id="SvgjsG1142"><path id="SvgjsPath1143" d="M303 448.75L395.5000000000002 448.75L395.5000000000002 164.17857142857144L798.0000000000005 164.17857142857144" stroke="#323232" stroke-width="2" fill="none"></path></g><g id="SvgjsG1144" transform="translate(441,25)"><path id="SvgjsPath1145" d="M 0 0L 120 0L 120 40L 0 40Z" stroke="none" fill="none"></path><g id="SvgjsG1146"><text id="SvgjsText1147" font-family="微软雅黑" text-anchor="middle" font-size="13px" width="120px" fill="#323232" font-weight="400" align="middle" lineHeight="125%" anchor="middle" family="微软雅黑" size="13px" weight="400" font-style="" opacity="1" y="9.375" transform="rotate(0)"><tspan id="SvgjsTspan1148" dy="16" x="60"><tspan id="SvgjsTspan1149" style="text-decoration:;">条件1，指定供应商</tspan></tspan></text></g></g><g id="SvgjsG1150" transform="translate(827.9285714285718,544.3268424729301)"><path id="SvgjsPath1151" d="M 0 0L 132 0L 132 47.06601466992665L 0 47.06601466992665Z" stroke="rgba(50,50,50,1)" stroke-width="2" fill-opacity="1" fill="#ffffff"></path><g id="SvgjsG1152"><text id="SvgjsText1153" font-family="微软雅黑" text-anchor="middle" font-size="13px" width="112px" fill="#323232" font-weight="400" align="middle" lineHeight="125%" anchor="middle" family="微软雅黑" size="13px" weight="400" font-style="" opacity="1" y="4.408007334963326" transform="rotate(0)"><tspan id="SvgjsTspan1154" dy="16" x="66"><tspan id="SvgjsTspan1155" style="text-decoration:;">channel5Query</tspan></tspan><tspan id="SvgjsTspan1156" dy="16" x="66"><tspan id="SvgjsTspan1157" style="text-decoration:;">获取供应商5剩余量</tspan></tspan></text></g></g><g id="SvgjsG1158" transform="translate(827.9285714285718,620.3048375829546)"><path id="SvgjsPath1159" d="M 0 0L 132 0L 132 47.06601466992665L 0 47.06601466992665Z" stroke="rgba(50,50,50,1)" stroke-width="2" fill-opacity="1" fill="#ffffff"></path><g id="SvgjsG1160"><text id="SvgjsText1161" font-family="微软雅黑" text-anchor="middle" font-size="13px" width="112px" fill="#323232" font-weight="400" align="middle" lineHeight="125%" anchor="middle" family="微软雅黑" size="13px" weight="400" font-style="" opacity="1" y="4.408007334963326" transform="rotate(0)"><tspan id="SvgjsTspan1162" dy="16" x="66"><tspan id="SvgjsTspan1163" style="text-decoration:;">channel6Query</tspan></tspan><tspan id="SvgjsTspan1164" dy="16" x="66"><tspan id="SvgjsTspan1165" style="text-decoration:;">获取供应商6剩余量</tspan></tspan></text></g></g><g id="SvgjsG1166"><path id="SvgjsPath1167" d="M672.4285714285722 448.89285714285705L749.6785714285722 448.89285714285705L749.6785714285722 567.8598498078935L826.9285714285718 567.8598498078935" stroke="#323232" stroke-width="2" fill="none"></path></g><g id="SvgjsG1168"><path id="SvgjsPath1169" d="M672.4285714285722 448.89285714285705L749.6785714285722 448.89285714285705L749.6785714285722 643.837844917918L826.9285714285718 643.837844917918" stroke="#323232" stroke-width="2" fill="none"></path></g><g id="SvgjsG1170"><path id="SvgjsPath1171" d="M960.9285714285713 567.8598498078935L1038.178571428571 567.8598498078935L1038.178571428571 448.7500000000001L1115.428571428571 448.7500000000001" stroke="#323232" stroke-width="2" fill="none"></path></g><g id="SvgjsG1172"><path id="SvgjsPath1173" d="M960.9285714285713 643.837844917918L1038.178571428571 643.837844917918L1038.178571428571 448.7500000000001L1115.428571428571 448.7500000000001" stroke="#323232" stroke-width="2" fill="none"></path></g><g id="SvgjsG1174" transform="translate(667,802.125)"><path id="SvgjsPath1175" d="M 0 23.375L 53.5 0L 107 23.375L 53.5 46.75Z" stroke="rgba(50,50,50,1)" stroke-width="2" fill-opacity="1" fill="#ffffff"></path><g id="SvgjsG1176"><text id="SvgjsText1177" font-family="微软雅黑" text-anchor="middle" font-size="13px" width="87px" fill="#323232" font-weight="400" align="middle" lineHeight="125%" anchor="middle" family="微软雅黑" size="13px" weight="400" font-style="" opacity="1" y="4.483750000000001" transform="rotate(0)"><tspan id="SvgjsTspan1178" dy="16" x="53.5"><tspan id="SvgjsTspan1179" style="text-decoration:;">if_2判断2</tspan></tspan></text></g></g><g id="SvgjsG1180"><path id="SvgjsPath1181" d="M602 825.5L634 825.5L634 825.5L663.4 825.5" stroke="#323232" stroke-width="2" fill="none" marker-end="url(#SvgjsMarker1182)"></path></g><g id="SvgjsG1184" transform="translate(946.9999999999998,735.2279951100246)"><path id="SvgjsPath1185" d="M 0 4Q 0 0 4 0L 103 0Q 107 0 107 4L 107 32.022004889975506Q 107 36.022004889975506 103 36.022004889975506L 4 36.022004889975506Q 0 36.022004889975506 0 32.022004889975506Z" stroke="rgba(50,50,50,1)" stroke-width="2" fill-opacity="1" fill="#ffffff"></path><g id="SvgjsG1186"><text id="SvgjsText1187" font-family="微软雅黑" text-anchor="middle" font-size="13px" width="87px" fill="#323232" font-weight="400" align="middle" lineHeight="125%" anchor="middle" family="微软雅黑" size="13px" weight="400" font-style="" opacity="1" y="-1.1139975550122472" transform="rotate(0)"><tspan id="SvgjsTspan1188" dy="16" x="53.5"><tspan id="SvgjsTspan1189" style="text-decoration:;">channel3供应</tspan></tspan><tspan id="SvgjsTspan1190" dy="16" x="53.5"><tspan id="SvgjsTspan1191" style="text-decoration:;">商3</tspan></tspan></text></g></g><g id="SvgjsG1192"><path id="SvgjsPath1193" d="M775 825.5L807.1666666666674 825.5L807.1666666666674 753.2389975550124L943.3999999999999 753.2389975550124" stroke="#323232" stroke-width="2" fill="none" marker-end="url(#SvgjsMarker1194)"></path></g><g id="SvgjsG1196" transform="translate(946.9999999999998,807.4889975550124)"><path id="SvgjsPath1197" d="M 0 4Q 0 0 4 0L 103 0Q 107 0 107 4L 107 32.022004889975506Q 107 36.022004889975506 103 36.022004889975506L 4 36.022004889975506Q 0 36.022004889975506 0 32.022004889975506Z" stroke="rgba(50,50,50,1)" stroke-width="2" fill-opacity="1" fill="#ffffff"></path><g id="SvgjsG1198"><text id="SvgjsText1199" font-family="微软雅黑" text-anchor="middle" font-size="13px" width="87px" fill="#323232" font-weight="400" align="middle" lineHeight="125%" anchor="middle" family="微软雅黑" size="13px" weight="400" font-style="" opacity="1" y="-1.1139975550122472" transform="rotate(0)"><tspan id="SvgjsTspan1200" dy="16" x="53.5"><tspan id="SvgjsTspan1201" style="text-decoration:;">channel4供应</tspan></tspan><tspan id="SvgjsTspan1202" dy="16" x="53.5"><tspan id="SvgjsTspan1203" style="text-decoration:;">商4</tspan></tspan></text></g></g><g id="SvgjsG1204"><path id="SvgjsPath1205" d="M775 825.5L860.5 825.5L860.5 825.5000000000001L943.3999999999999 825.5000000000001" stroke="#323232" stroke-width="2" fill="none" marker-end="url(#SvgjsMarker1206)"></path></g><g id="SvgjsG1208" transform="translate(839.9999999999998,907.5220048899756)"><path id="SvgjsPath1209" d="M 0 23.375L 53.5 0L 107 23.375L 53.5 46.75Z" stroke="rgba(50,50,50,1)" stroke-width="2" fill-opacity="1" fill="#ffffff"></path><g id="SvgjsG1210"><text id="SvgjsText1211" font-family="微软雅黑" text-anchor="middle" font-size="13px" width="87px" fill="#323232" font-weight="400" align="middle" lineHeight="125%" anchor="middle" family="微软雅黑" size="13px" weight="400" font-style="" opacity="1" y="4.483750000000001" transform="rotate(0)"><tspan id="SvgjsTspan1212" dy="16" x="53.5"><tspan id="SvgjsTspan1213" style="text-decoration:;">if_3判断3</tspan></tspan></text></g></g><g id="SvgjsG1214"><path id="SvgjsPath1215" d="M775 825.5L807 825.5L807 930.8970048899756L836.3999999999999 930.8970048899756" stroke="#323232" stroke-width="2" fill="none" marker-end="url(#SvgjsMarker1216)"></path></g><g id="SvgjsG1218" transform="translate(975.9999999999998,876.8750000000001)"><path id="SvgjsPath1219" d="M 0 4Q 0 0 4 0L 103 0Q 107 0 107 4L 107 32.022004889975506Q 107 36.022004889975506 103 36.022004889975506L 4 36.022004889975506Q 0 36.022004889975506 0 32.022004889975506Z" stroke="rgba(50,50,50,1)" stroke-width="2" fill-opacity="1" fill="#ffffff"></path><g id="SvgjsG1220"><text id="SvgjsText1221" font-family="微软雅黑" text-anchor="middle" font-size="13px" width="87px" fill="#323232" font-weight="400" align="middle" lineHeight="125%" anchor="middle" family="微软雅黑" size="13px" weight="400" font-style="" opacity="1" y="-1.1139975550122472" transform="rotate(0)"><tspan id="SvgjsTspan1222" dy="16" x="53.5"><tspan id="SvgjsTspan1223" style="text-decoration:;">channel5供应</tspan></tspan><tspan id="SvgjsTspan1224" dy="16" x="53.5"><tspan id="SvgjsTspan1225" style="text-decoration:;">商5</tspan></tspan></text></g></g><g id="SvgjsG1226" transform="translate(975.9999999999998,941.8750000000001)"><path id="SvgjsPath1227" d="M 0 4Q 0 0 4 0L 103 0Q 107 0 107 4L 107 32.022004889975506Q 107 36.022004889975506 103 36.022004889975506L 4 36.022004889975506Q 0 36.022004889975506 0 32.022004889975506Z" stroke="rgba(50,50,50,1)" stroke-width="2" fill-opacity="1" fill="#ffffff"></path><g id="SvgjsG1228"><text id="SvgjsText1229" font-family="微软雅黑" text-anchor="middle" font-size="13px" width="87px" fill="#323232" font-weight="400" align="middle" lineHeight="125%" anchor="middle" family="微软雅黑" size="13px" weight="400" font-style="" opacity="1" y="-1.1139975550122472" transform="rotate(0)"><tspan id="SvgjsTspan1230" dy="16" x="53.5"><tspan id="SvgjsTspan1231" style="text-decoration:;">channel6供应</tspan></tspan><tspan id="SvgjsTspan1232" dy="16" x="53.5"><tspan id="SvgjsTspan1233" style="text-decoration:;">商6</tspan></tspan></text></g></g><g id="SvgjsG1234"><path id="SvgjsPath1235" d="M947.9999999999998 930.8970048899756L961.4999999999998 930.8970048899756L961.4999999999998 894.8860024449879L972.3999999999999 894.8860024449879" stroke="#323232" stroke-width="2" fill="none" marker-end="url(#SvgjsMarker1236)"></path></g><g id="SvgjsG1238"><path id="SvgjsPath1239" d="M947.9999999999998 930.8970048899756L961.4999999999998 930.8970048899756L961.4999999999998 959.8860024449879L972.3999999999999 959.8860024449879" stroke="#323232" stroke-width="2" fill="none" marker-end="url(#SvgjsMarker1240)"></path></g><g id="SvgjsG1242" transform="translate(1130.9999999999998,920.8970048899756)"><path id="SvgjsPath1243" d="M 0 10C 0 -3.3333333333333335 20 -3.3333333333333335 20 10C 20 23.333333333333332 0 23.333333333333332 0 10Z" stroke="rgba(50,50,50,1)" stroke-width="2" fill-opacity="1" fill="#ffffff"></path><g id="SvgjsG1244"><text id="SvgjsText1245" font-family="微软雅黑" text-anchor="middle" font-size="13px" width="0px" fill="#323232" font-weight="400" align="middle" lineHeight="125%" anchor="middle" family="微软雅黑" size="13px" weight="400" font-style="" opacity="1" y="-0.625" transform="rotate(0)"></text></g></g><g id="SvgjsG1246"><path id="SvgjsPath1247" d="M1083.9999999999998 894.8860024449879L1106.9999999999998 894.8860024449879L1106.9999999999998 930.8970048899756L1127.3999999999999 930.8970048899756" stroke="#323232" stroke-width="2" fill="none" marker-end="url(#SvgjsMarker1248)"></path></g><g id="SvgjsG1250"><path id="SvgjsPath1251" d="M1083.9999999999998 959.8860024449879L1106.9999999999998 959.8860024449879L1106.9999999999998 930.8970048899756L1127.3999999999999 930.8970048899756" stroke="#323232" stroke-width="2" fill="none" marker-end="url(#SvgjsMarker1252)"></path></g><g id="SvgjsG1254" transform="translate(1415.5,413.75)"><path id="SvgjsPath1255" d="M 0 4Q 0 0 4 0L 96 0Q 100 0 100 4L 100 66Q 100 70 96 70L 4 70Q 0 70 0 66Z" stroke="rgba(50,50,50,1)" stroke-width="2" fill-opacity="1" fill="#ffffff"></path><g id="SvgjsG1256"><text id="SvgjsText1257" font-family="微软雅黑" text-anchor="middle" font-size="13px" width="80px" fill="#323232" font-weight="400" align="middle" lineHeight="125%" anchor="middle" family="微软雅黑" size="13px" weight="400" font-style="" opacity="1" y="15.875" transform="rotate(0)"><tspan id="SvgjsTspan1258" dy="16" x="50"><tspan id="SvgjsTspan1259" style="text-decoration:;">batchSender</tspan></tspan><tspan id="SvgjsTspan1260" dy="16" x="50"><tspan id="SvgjsTspan1261" style="text-decoration:;">批量发送消息</tspan></tspan></text></g></g><g id="SvgjsG1262" transform="translate(1244.9999999999998,815.5000000000001)"><path id="SvgjsPath1263" d="M 0 10C 0 -3.3333333333333335 20 -3.3333333333333335 20 10C 20 23.333333333333332 0 23.333333333333332 0 10Z" stroke="rgba(50,50,50,1)" stroke-width="2" fill-opacity="1" fill="#ffffff"></path><g id="SvgjsG1264"><text id="SvgjsText1265" font-family="微软雅黑" text-anchor="middle" font-size="13px" width="0px" fill="#323232" font-weight="400" align="middle" lineHeight="125%" anchor="middle" family="微软雅黑" size="13px" weight="400" font-style="" opacity="1" y="-0.625" transform="rotate(0)"></text></g></g><g id="SvgjsG1266"><path id="SvgjsPath1267" d="M1054.9999999999998 753.2389975550124L1197.2777777777771 753.2389975550124L1197.2777777777771 825.5000000000001L1241.3999999999999 825.5000000000001" stroke="#323232" stroke-width="2" fill="none" marker-end="url(#SvgjsMarker1268)"></path></g><g id="SvgjsG1270"><path id="SvgjsPath1271" d="M1054.9999999999998 825.5000000000001L1149.4999999999998 825.5000000000001L1149.4999999999998 825.5000000000001L1241.3999999999999 825.5000000000001" stroke="#323232" stroke-width="2" fill="none" marker-end="url(#SvgjsMarker1272)"></path></g><g id="SvgjsG1274"><path id="SvgjsPath1275" d="M1151.9999999999998 930.8970048899756L1197.9999999999998 930.8970048899756L1197.9999999999998 825.5000000000001L1241.3999999999999 825.5000000000001" stroke="#323232" stroke-width="2" fill="none" marker-end="url(#SvgjsMarker1276)"></path></g><g id="SvgjsG1278"><path id="SvgjsPath1279" d="M895.9999999999998 77.67857142857144L1336.5 77.67857142857144L1336.5 448.75L1411.9 448.75" stroke="#323232" stroke-width="2" fill="none" marker-end="url(#SvgjsMarker1280)"></path></g><g id="SvgjsG1282"><path id="SvgjsPath1283" d="M1237.5000000000002 448.7500000000001L1326 448.7500000000001L1326 448.75L1411.9 448.75" stroke="#323232" stroke-width="2" fill="none" marker-end="url(#SvgjsMarker1284)"></path></g><g id="SvgjsG1286"><path id="SvgjsPath1287" d="M1265.9999999999998 825.5000000000001L1336.5 825.5000000000001L1336.5 448.75L1411.9 448.75" stroke="#323232" stroke-width="2" fill="none" marker-end="url(#SvgjsMarker1288)"></path></g><g id="SvgjsG1290"><path id="SvgjsPath1291" d="M896.0000000000005 164.17857142857144L1336.5000000000002 164.17857142857144L1336.5000000000002 448.75L1411.9 448.75" stroke="#323232" stroke-width="2" fill="none" marker-end="url(#SvgjsMarker1292)"></path></g><g id="SvgjsG1294" transform="translate(436,392.3708522528815)"><path id="SvgjsPath1295" d="M 0 0L 120 0L 120 40L 0 40Z" stroke="none" fill="none"></path><g id="SvgjsG1296"><text id="SvgjsText1297" font-family="微软雅黑" text-anchor="middle" font-size="13px" width="120px" fill="#323232" font-weight="400" align="middle" lineHeight="125%" anchor="middle" family="微软雅黑" size="13px" weight="400" font-style="" opacity="1" y="0.875" transform="rotate(0)"><tspan id="SvgjsTspan1298" dy="16" x="60"><tspan id="SvgjsTspan1299" style="text-decoration:;">条件3，并行获取供</tspan></tspan><tspan id="SvgjsTspan1300" dy="16" x="60"><tspan id="SvgjsTspan1301" style="text-decoration:;">应商渠道剩余量</tspan></tspan></text></g></g><g id="SvgjsG1302" transform="translate(431,748.2389975550125)"><path id="SvgjsPath1303" d="M 0 0L 140 0L 140 37.136002444987525L 0 37.136002444987525Z" stroke="none" fill="none"></path><g id="SvgjsG1304"><text id="SvgjsText1305" font-family="微软雅黑" text-anchor="middle" font-size="13px" width="140px" fill="#323232" font-weight="400" align="middle" lineHeight="125%" anchor="middle" family="微软雅黑" size="13px" weight="400" font-style="" opacity="1" y="7.943001222493763" transform="rotate(0)"><tspan id="SvgjsTspan1306" dy="16" x="70"><tspan id="SvgjsTspan1307" style="text-decoration:;">条件4，各种复杂判断</tspan></tspan></text></g></g></svg>